<svg width="82" height="32" viewBox="0 0 82 32" fill="none" xmlns="http://www.w3.org/2000/svg">
<path fill-rule="evenodd" clip-rule="evenodd" d="M82 31.5102C79.1667 29.3436 74.5 24.0102 72.5 21.0102C72.4104 20.8758 72.3071 20.719 72.1903 20.5416C69.3262 16.1923 58.3536 -0.470187 42.5 0.0102235C26 0.510223 22 5.51022 11 21.0102C3.6474 31.3707 1.94939 31.3993 0.714827 31.4201C0.471793 31.4242 0.246718 31.428 -1.37736e-06 31.5102C0.497061 32.0072 54.0319 31.6808 81.5154 31.5132L81.5162 31.5132L82 31.5102ZM39 18.5C39 20.433 40.567 22 42.5 22C44.433 22 46 20.433 46 18.5C46 16.567 44.433 15 42.5 15C40.567 15 39 16.567 39 18.5Z" fill="white"/>
</svg>
